<svg width="30" height="30" viewBox="0 0 30 30" fill="none" xmlns="http://www.w3.org/2000/svg">
<rect width="30" height="30" rx="15" fill="#FACF50"/>
<path d="M9 9H10.2558L10.507 10.2558M11.5117 15.2792H17.7908L20.3025 10.2558H10.507M11.5117 15.2792L10.507 10.2558M11.5117 15.2792L10.0719 16.7189C9.67636 17.1145 9.95651 17.7908 10.5159 17.7908H17.7908M17.7908 17.7908C17.0973 17.7908 16.535 18.3531 16.535 19.0467C16.535 19.7402 17.0973 20.3025 17.7908 20.3025C18.4844 20.3025 19.0467 19.7402 19.0467 19.0467C19.0467 18.3531 18.4844 17.7908 17.7908 17.7908ZM12.7675 19.0467C12.7675 19.7402 12.2052 20.3025 11.5117 20.3025C10.8181 20.3025 10.2558 19.7402 10.2558 19.0467C10.2558 18.3531 10.8181 17.7908 11.5117 17.7908C12.2052 17.7908 12.7675 18.3531 12.7675 19.0467Z" stroke="#2C2F24" stroke-linecap="round" stroke-linejoin="round"/>
</svg>
