<svg width="30" height="30" viewBox="0 0 30 30" fill="none" xmlns="http://www.w3.org/2000/svg">
<rect width="30" height="30" rx="15" fill="#FACF50"/>
<path d="M13.5117 15.9071L17.2792 12.1396M13.8256 12.4535H13.8319M16.9652 15.5931H16.9715M19.7908 20.3025V10.2558C19.7908 9.56226 19.2286 9 18.535 9H12.2558C11.5623 9 11 9.56226 11 10.2558V20.3025L13.1977 19.0467L15.3954 20.3025L17.5931 19.0467L19.7908 20.3025ZM14.1396 12.4535C14.1396 12.6269 13.999 12.7675 13.8256 12.7675C13.6522 12.7675 13.5117 12.6269 13.5117 12.4535C13.5117 12.2801 13.6522 12.1396 13.8256 12.1396C13.999 12.1396 14.1396 12.2801 14.1396 12.4535ZM17.2792 15.5931C17.2792 15.7665 17.1386 15.9071 16.9652 15.9071C16.7918 15.9071 16.6512 15.7665 16.6512 15.5931C16.6512 15.4197 16.7918 15.2792 16.9652 15.2792C17.1386 15.2792 17.2792 15.4197 17.2792 15.5931Z" stroke="#2C2F24" stroke-linecap="round" stroke-linejoin="round"/>
</svg>
